<svg width="45.324mm" height="45.764mm" version="1.1" viewBox="0 0 45.324 45.764" xmlns="http://www.w3.org/2000/svg">
 <g transform="translate(-77.285 -61.916)">
  <g stroke-width="0">
   <path d="m99.967 71.678a12.391 12.954 0 0 0-12.391 12.954 12.391 12.954 0 0 0 12.391 12.954 12.391 12.954 0 0 0 12.39-12.954 12.391 12.954 0 0 0-12.39-12.954zm-0.04909 4.4204a8.2115 8.5847 0 0 1 8.2114 8.585 8.2115 8.5847 0 0 1-8.2114 8.5845 8.2115 8.5847 0 0 1-8.2114-8.5845 8.2115 8.5847 0 0 1 8.2114-8.585z" opacity=".98"/>
   <path d="m95.734 76.528a5.8151 7.4135 0 0 0 1.152-0.15009 8.6169 5.4029 66.86 0 1-4.4503-6.5474 8.6169 5.4029 66.86 0 1 0.63195-7.2998 5.8151 7.4135 0 0 0-3.1491 6.5835 5.8151 7.4135 0 0 0 5.8154 7.4138z" opacity=".98"/>
   <path d="m102.76 76.58a5.8151 7.4135 20 0 0 1.1339 0.25297 8.6169 5.4029 86.86 0 1-1.9426-7.6746 8.6169 5.4029 86.86 0 1 3.0905-6.6434 5.8151 7.4135 20 0 0-5.2109 5.1094 5.8151 7.4135 20 0 0 2.929 8.9557z" opacity=".98"/>
   <path d="m107.68 76.877a5.5387 7.2016 26.555 0 0 0.59187 1.0183 4.8413 8.8975 22.95 0 1 2.8881-7.8667 4.8413 8.8975 22.95 0 1 5.5647-3.4242 5.5387 7.2016 26.555 0 0-6.0998 0.62307 5.5387 7.2016 26.555 0 0-2.945 9.6496z" opacity=".98"/>
   <path d="m110.32 83.869a5.7976 6.9235 75.978 0 0 0.32388 1.1084 5.2751 8.2174 52.322 0 1 5.2841-5.5196 5.2751 8.2174 52.322 0 1 6.7957-0.64524 5.7976 6.9235 75.978 0 0-6.5458-1.958 5.7976 6.9235 75.978 0 0-5.8578 7.0145z" opacity=".98"/>
   <path d="m108.06 88.729a6.9235 5.7976 25.978 0 0-0.46442 1.0573 8.2174 5.2751 2.3223 0 1 7.5958-0.83176 8.2174 5.2751 2.3223 0 1 5.6205 3.8739 6.9235 5.7976 25.978 0 0-3.7558-5.7075 6.9235 5.7976 25.978 0 0-8.9961 1.6081z" opacity=".98"/>
   <path d="m104.01 93.128a6.9235 5.7976 55.978 0 0-0.93085 0.68343 8.2174 5.2751 32.322 0 1 6.994 3.0776 8.2174 5.2751 32.322 0 1 2.9306 6.1651 6.9235 5.7976 55.978 0 0-0.39885-6.8208 6.9235 5.7976 55.978 0 0-8.5949-3.1054z" opacity=".98"/>
   <path d="m97.453 94.148a6.9235 5.7976 85.978 0 0-1.1479 0.12644 8.2174 5.2751 62.322 0 1 4.5182 6.1623 8.2174 5.2751 62.322 0 1-0.54462 6.8045 6.9235 5.7976 85.978 0 0 3.065-6.1064 6.9235 5.7976 85.978 0 0-5.8907-6.9868z" opacity=".98"/>
   <path d="m92.915 92.337a5.7976 6.9235 35.978 0 0-0.96059-0.64097 5.2751 8.2174 12.322 0 1-0.49986 7.6248 5.2751 8.2174 12.322 0 1-4.791 4.8624 5.7976 6.9235 35.978 0 0 6.273-2.7076 5.7976 6.9235 35.978 0 0-0.02151-9.1387z" opacity=".98"/>
   <path d="m90.549 87.721a5.7976 6.9235 85.978 0 0-0.12645-1.1479 5.2751 8.2174 62.322 0 1-6.1623 4.5182 5.2751 8.2174 62.322 0 1-6.8045-0.54462 5.7976 6.9235 85.978 0 0 6.1064 3.065 5.7976 6.9235 85.978 0 0 6.9868-5.8907z" opacity=".98"/>
   <path d="m91.444 79.979a7.2275 6.0089 36.892 0 0 0.8541-0.84382 8.7304 5.3721 19.796 0 1-7.9437-1.8362 8.7304 5.3721 19.796 0 1-4.2346-5.6234 7.2275 6.0089 36.892 0 0 1.688 6.7206 7.2275 6.0089 36.892 0 0 9.6362 1.5829z" opacity=".98"/>
  </g>
 </g>
</svg>
